<svg width="0" height="0" class="hidden">
  <symbol id="icon-prod" viewBox="0 0 113 34" xmlns="http://www.w3.org/2000/svg">
    <path d="M44.0007 23.322H43.1025L42.9796 22.5183C42.8611 22.4011 42.7113 22.3066 42.5306 22.2373C42.3499 22.1682 42.1366 22.1342 41.8909 22.1342C41.3669 22.1342 40.9631 22.3249 40.6806 22.7048C40.3981 23.0861 40.2569 23.5818 40.2569 24.1946V24.4051C40.2569 25.018 40.3967 25.5165 40.6792 25.8993C40.9602 26.2834 41.3571 26.474 41.8697 26.474C42.107 26.474 42.3244 26.4401 42.5221 26.3709C42.7184 26.3017 42.871 26.2085 42.9796 26.0899L43.1025 25.2863H44.0007V26.4782C43.7579 26.7592 43.4485 26.9838 43.0715 27.1504C42.6958 27.3171 42.275 27.4018 41.8075 27.4018C40.9998 27.4018 40.3374 27.1208 39.822 26.5616C39.3065 26.0009 39.0481 25.2835 39.0481 24.4051V24.2031C39.0481 23.329 39.3051 22.6102 39.8177 22.0467C40.3318 21.4846 40.9941 21.2036 41.8075 21.2036C42.275 21.2036 42.6944 21.2884 43.0701 21.4578C43.4457 21.6272 43.755 21.8518 44.0007 22.13V23.322ZM47.2615 21.2898C47.945 21.2898 48.4816 21.4465 48.8714 21.76C49.2598 22.0735 49.4547 22.5056 49.4547 23.0565C49.4547 23.3601 49.3727 23.6242 49.2104 23.8473C49.048 24.0704 48.8093 24.2512 48.4943 24.3896C48.8502 24.4941 49.1058 24.6678 49.2626 24.9121C49.418 25.1564 49.4956 25.46 49.4956 25.8201V26.1266C49.4956 26.2593 49.5224 26.3624 49.5747 26.4345C49.6269 26.5079 49.7131 26.5517 49.8346 26.5658L49.9843 26.5856V27.3143H49.3586C48.9646 27.3143 48.6879 27.2084 48.5283 26.9951C48.3672 26.7833 48.2882 26.5093 48.2882 26.1718V25.8286C48.2882 25.5363 48.2091 25.3075 48.0538 25.1395C47.8984 24.9728 47.6781 24.8853 47.3943 24.8768H46.4057V26.4655L47.0511 26.5898V27.3143H44.5557V26.5898L45.1969 26.4655V22.1427L44.5557 22.0184V21.2898H45.1969H47.2615ZM46.4057 23.9461H47.2404C47.5778 23.9461 47.8292 23.8741 47.9987 23.7315C48.1667 23.5875 48.25 23.3812 48.25 23.1101C48.25 22.8404 48.1667 22.6243 48.0001 22.4633C47.8334 22.3023 47.5877 22.2218 47.2615 22.2218H46.4057V23.9461ZM54.2703 24.6664H52.2311V26.3878H54.1758L54.2294 25.6676H55.1473V27.3143H50.3811V26.5898L51.0223 26.4655V22.1427L50.3811 22.0184V21.2898H51.0223H55.1389V22.9407H54.2125L54.1588 22.2218H52.2311V23.7357H54.2703V24.6664ZM55.7306 26.5898L56.1613 26.5277L57.9944 21.2898H59.2315L61.0518 26.5277L61.4811 26.5898V27.3143H59.4291V26.5898L59.8472 26.5163L59.5832 25.6888H57.63L57.3645 26.5163L57.7826 26.5898V27.3143H55.7306V26.5898ZM57.9153 24.7991H59.2978L58.6186 22.6766H58.5932L57.9153 24.7991ZM67.1837 21.2898V22.8954H66.2573L66.2078 22.2218H65.0979V26.4655L65.7432 26.5898V27.3143H63.245V26.5898L63.8904 26.4655V22.2218H62.7861L62.7366 22.8954H61.813V21.2898H67.1837ZM67.572 22.0184V21.2898H70.0673V22.0184L69.422 22.1427V26.4655L70.0673 26.5898V27.3143H67.572V26.5898L68.2174 26.4655V22.1427L67.572 22.0184ZM72.6361 22.0184L72.1772 22.1018L73.2448 25.7128L73.3196 26.0447H73.3437L73.4143 25.7213L74.4862 22.1018L74.0314 22.0184V21.2898H76.2316V22.0184L75.7275 22.0848L73.9523 27.3143H72.711L70.9316 22.0848L70.4359 22.0184V21.2898H72.6361V22.0184ZM80.4894 24.6664H78.4502V26.3878H80.3949L80.4485 25.6676H81.3664V27.3143H76.6002V26.5898L77.2414 26.4655V22.1427L76.6002 22.0184V21.2898H77.2414H81.358V22.9407H80.4316L80.3779 22.2218H78.4502V23.7357H80.4894V24.6664ZM89.0828 26.6434C88.888 26.8369 88.6012 27.012 88.227 27.1674C87.8513 27.3228 87.3769 27.4018 86.8035 27.4018C85.9901 27.4018 85.3278 27.1292 84.818 26.5842C84.3067 26.0391 84.0525 25.3315 84.0525 24.4601V24.2526C84.0525 23.3502 84.3039 22.6172 84.8067 22.051C85.3108 21.486 85.9675 21.2036 86.7781 21.2036C87.2498 21.2036 87.6819 21.2785 88.0717 21.4296C88.4614 21.5793 88.7863 21.7827 89.0461 22.0397V23.2513H88.1522L87.9827 22.445C87.8726 22.3503 87.7272 22.2754 87.5463 22.219C87.3656 22.1625 87.158 22.1342 86.9235 22.1342C86.3968 22.1342 85.9873 22.3292 85.695 22.7175C85.4026 23.1073 85.2557 23.6157 85.2557 24.2441V24.4601C85.2557 25.0716 85.3997 25.5603 85.6865 25.9261C85.9732 26.2919 86.3869 26.474 86.9278 26.474C87.1707 26.474 87.367 26.4542 87.5167 26.4119C87.6678 26.3709 87.785 26.3229 87.8712 26.2678V25.2454L87.0097 25.179V24.3316H89.0828V26.6434ZM92.3931 21.2898C93.0766 21.2898 93.6132 21.4465 94.003 21.76C94.3914 22.0735 94.5863 22.5056 94.5863 23.0565C94.5863 23.3601 94.5043 23.6242 94.342 23.8473C94.1796 24.0704 93.9409 24.2512 93.6259 24.3896C93.9818 24.4941 94.2374 24.6678 94.3942 24.9121C94.5496 25.1564 94.6272 25.46 94.6272 25.8201V26.1266C94.6272 26.2593 94.654 26.3624 94.7063 26.4345C94.7585 26.5079 94.8447 26.5517 94.9662 26.5658L95.1159 26.5856V27.3143H94.4902C94.0962 27.3143 93.8195 27.2084 93.6599 26.9951C93.4989 26.7833 93.4198 26.5093 93.4198 26.1718V25.8286C93.4198 25.5363 93.3407 25.3075 93.1854 25.1395C93.03 24.9728 92.8097 24.8853 92.5259 24.8768H91.5373V26.4655L92.1827 26.5898V27.3143H89.6873V26.5898L90.3285 26.4655V22.1427L89.6873 22.0184V21.2898H90.3285H92.3931ZM91.5373 23.9461H92.372C92.7094 23.9461 92.9608 23.8741 93.1302 23.7315C93.2983 23.5875 93.3817 23.3812 93.3817 23.1101C93.3817 22.8404 93.2983 22.6243 93.1317 22.4633C92.965 22.3023 92.7193 22.2218 92.3931 22.2218H91.5373V23.9461ZM101.019 24.3472C101.019 25.2298 100.768 25.9599 100.262 26.5362C99.7578 27.1123 99.0969 27.4018 98.2807 27.4018C97.4672 27.4018 96.8105 27.1123 96.3092 26.5362C95.8093 25.9599 95.5579 25.2298 95.5579 24.3472V24.2568C95.5579 23.3798 95.8078 22.6511 96.3078 22.0721C96.8063 21.4931 97.463 21.2036 98.2765 21.2036C99.0927 21.2036 99.7536 21.4931 100.261 22.0721C100.766 22.6511 101.019 23.3798 101.019 24.2568V24.3472ZM99.8158 24.2484C99.8158 23.6256 99.6859 23.1186 99.4274 22.7302C99.1675 22.3419 98.7835 22.1469 98.2765 22.1469C97.7695 22.1469 97.391 22.3404 97.141 22.726C96.8911 23.1115 96.7668 23.6199 96.7668 24.2484V24.3472C96.7668 24.9826 96.8925 25.4925 97.1453 25.8808C97.3981 26.2678 97.7765 26.4613 98.2807 26.4613C98.7905 26.4613 99.1746 26.2678 99.4303 25.8808C99.6873 25.4925 99.8158 24.9826 99.8158 24.3472V24.2484ZM103.928 21.2898V22.0184L103.283 22.1427V25.2863C103.283 25.6846 103.39 25.9811 103.603 26.1789C103.817 26.3751 104.11 26.474 104.482 26.474C104.86 26.474 105.157 26.3765 105.371 26.1803C105.588 25.9853 105.695 25.6874 105.695 25.2863V22.1427L105.054 22.0184V21.2898H107.548V22.0184L106.902 22.1427V25.2863C106.902 25.9628 106.681 26.4839 106.234 26.8511C105.789 27.2182 105.205 27.4018 104.482 27.4018C103.763 27.4018 103.181 27.2182 102.739 26.8511C102.296 26.4839 102.074 25.9628 102.074 25.2863V22.1427L101.433 22.0184V21.2898H102.074H103.283H103.928ZM110.77 21.2898C111.461 21.2898 112.005 21.4677 112.403 21.8222C112.801 22.1767 113 22.6398 113 23.2146C113 23.7908 112.801 24.254 112.403 24.6043C112.005 24.9544 111.461 25.1296 110.77 25.1296H109.754V26.4655L110.399 26.5898V27.3143H107.904V26.5898L108.545 26.4655V22.1427L107.904 22.0184V21.2898H108.545H110.77ZM109.754 24.1989H110.77C111.108 24.1989 111.362 24.1072 111.534 23.9235C111.707 23.74 111.793 23.5069 111.793 23.2231C111.793 22.9322 111.707 22.6935 111.534 22.5042C111.362 22.315 111.108 22.2218 110.77 22.2218H109.754V24.1989Z" />
    <path d="M26.5692 9.47206H25.2115L24.9742 8.23069C24.8175 8.13121 24.5887 8.04434 24.2857 7.97019C23.9849 7.89603 23.663 7.8579 23.324 7.8579C22.8283 7.8579 22.4449 7.96167 22.1738 8.17144C21.9026 8.3811 21.7671 8.65012 21.7671 8.98057C21.7671 9.28781 21.909 9.53771 22.1907 9.73476C22.4745 9.93172 22.9639 10.1394 23.6587 10.3596C24.6564 10.6351 25.4126 11.0014 25.9274 11.4569C26.4421 11.9123 26.7006 12.5097 26.7006 13.2511C26.7006 14.0243 26.3935 14.6344 25.7812 15.0813C25.169 15.5284 24.362 15.7528 23.3621 15.7528C22.6462 15.7528 22.0001 15.6385 21.4217 15.4097C20.8456 15.183 20.3647 14.8695 19.9792 14.467V12.5797H21.3815L21.5742 13.8655C21.7565 14.0137 22.0043 14.1366 22.3157 14.2341C22.6271 14.3314 22.9766 14.3802 23.3621 14.3802C23.8578 14.3802 24.2349 14.2785 24.4933 14.0772C24.7517 13.8739 24.881 13.6028 24.881 13.2638C24.881 12.9164 24.7581 12.6368 24.5124 12.4249C24.2666 12.2153 23.8345 12.0161 23.2181 11.8298C22.1462 11.5183 21.3371 11.1519 20.7862 10.724C20.2355 10.2982 19.9601 9.71564 19.9601 8.97427C19.9601 8.2434 20.2715 7.64393 20.8922 7.17797C21.5129 6.71191 22.2924 6.47462 23.2308 6.46191C23.9256 6.46191 24.559 6.5679 25.1309 6.77756C25.7007 6.98942 26.1816 7.27114 26.5692 7.62282V9.47206Z" />
    <path d="M27.1077 21.4138H25.7604L25.5761 20.2085C25.3982 20.0326 25.1737 19.8907 24.9025 19.7869C24.6314 19.6831 24.3115 19.6323 23.9429 19.6323C23.157 19.6323 22.5511 19.9182 22.1275 20.4881C21.7039 21.06 21.492 21.8035 21.492 22.7229V23.0386C21.492 23.9579 21.7018 24.7057 22.1254 25.2797C22.5469 25.8559 23.1422 26.1419 23.9111 26.1419C24.267 26.1419 24.5932 26.091 24.8898 25.9873C25.1843 25.8834 25.4131 25.7436 25.5761 25.5656L25.7604 24.3604H27.1077V26.1482C26.7433 26.5697 26.2794 26.9066 25.7138 27.1566C25.1504 27.4065 24.5191 27.5336 23.8179 27.5336C22.6063 27.5336 21.6128 27.112 20.8396 26.2732C20.0664 25.4322 19.6787 24.3561 19.6787 23.0386V22.7356C19.6787 21.4244 20.0643 20.3462 20.8332 19.5009C21.6043 18.6578 22.5978 18.2363 23.8179 18.2363C24.5191 18.2363 25.1483 18.3634 25.7117 18.6176C26.2751 18.8718 26.7391 19.2086 27.1077 19.6259V21.4138Z" />
    <path d="M15.7136 20.7187L15.6777 20.7124L13.2564 27.402H12.0405L9.63198 20.7378L9.59595 20.742L9.76969 24.7096V26.1289L10.7377 26.3152V27.402H6.99463V26.3152L7.95637 26.1289V19.6447L6.99463 19.4583V18.3652H7.95637H10.3204L12.623 25.0252H12.6611L14.9828 18.3652H18.3213V19.4583L17.3532 19.6447V26.1289L18.3213 26.3152V27.402H14.5782V26.3152L15.54 26.1289V24.7096L15.7136 20.7187Z" />
    <path d="M14.5226 6.44873C15.6262 6.44873 16.5375 6.80291 17.2531 7.50785C17.9686 8.2129 18.3271 9.1186 18.3271 10.2236V11.7191C18.3271 12.8262 17.9691 13.7315 17.2531 14.4326C16.5371 15.1338 15.6254 15.4855 14.5226 15.4855H7.00732V14.3987L7.96907 14.2124V7.72822L7.00732 7.54178V6.44873H7.96907H14.5226ZM9.78238 7.84681V14.0959H14.4294C15.0797 14.0959 15.5885 13.8751 15.9567 13.4371C16.3249 12.9989 16.5096 12.4266 16.5096 11.7191V10.2109C16.5096 9.51181 16.3249 8.94156 15.9567 8.50352C15.5885 8.06538 15.0789 7.84681 14.4294 7.84681H9.78238Z" />
    <path d="M0.700545 0H33.0549H33.7554V0.700545V33.2816V33.982L33.0549 33.9821H0.700545L0 33.982V33.2816V0.700545V0H0.700545ZM32.3544 1.40109H1.40109V32.581H32.3544V1.40109Z" />
  </symbol>
</svg>